<?xml version="1.0" standalone="no"?>
<!DOCTYPE svg PUBLIC "-//W3C//DTD SVG 20010904//EN"
 "http://www.w3.org/TR/2001/REC-SVG-20010904/DTD/svg10.dtd">
<svg version="1.0" xmlns="http://www.w3.org/2000/svg"
 width="640.000000pt" height="640.000000pt" viewBox="0 0 640.000000 640.000000"
 preserveAspectRatio="xMidYMid meet">
<metadata>
Created by potrace 1.14, written by Peter Selinger 2001-2017
</metadata>
<g transform="translate(0.000000,640.000000) scale(0.100000,-0.100000)"
fill="#000000" stroke="none">
<path d="M0 3200 l0 -3200 3200 0 3200 0 0 585 0 585 -2624 0 c-1443 0 -2644
3 -2670 6 -39 6 -46 10 -46 29 0 13 7 26 16 29 8 3 1208 6 2666 6 1458 0 2653
2 2655 3 2 2 2 384 1 848 -3 690 -5 839 -16 815 -7 -15 -19 -74 -27 -130 -9
-55 -24 -128 -34 -161 -11 -33 -25 -97 -31 -143 -6 -46 -18 -101 -26 -123 -7
-23 -23 -95 -34 -161 -11 -65 -24 -127 -30 -137 -5 -10 -16 -65 -25 -122 -21
-133 -61 -270 -82 -286 -13 -10 -118 -13 -445 -13 -504 0 -471 -8 -456 106 5
38 20 105 33 149 12 44 26 109 30 145 3 36 15 88 25 115 10 28 25 98 34 155 9
58 24 132 35 165 10 33 22 92 26 130 4 39 16 95 27 125 10 30 26 99 34 153 8
54 21 117 29 140 8 23 23 97 34 164 10 66 24 131 31 143 6 12 18 65 26 119 8
53 23 126 34 163 11 37 25 103 30 145 6 43 19 105 30 138 11 33 26 105 34 160
8 55 22 116 30 136 8 19 20 76 27 125 6 49 20 115 30 148 10 32 25 102 33 155
8 53 22 116 31 141 9 24 22 90 30 147 8 56 22 119 30 140 9 21 22 83 30 138 8
56 21 120 30 144 8 24 22 89 31 145 9 55 24 126 34 156 10 30 23 94 29 142 6
47 20 112 31 144 11 31 20 67 20 78 0 12 7 32 16 44 14 21 22 22 150 22 l134
0 0 175 0 175 -3200 0 -3200 0 0 -3200z m5315 1729 c15 -15 15 -25 0 -125 -9
-60 -23 -126 -31 -147 -8 -21 -21 -84 -29 -140 -9 -56 -24 -129 -34 -162 -10
-33 -22 -83 -26 -112 -4 -28 -13 -60 -20 -70 -13 -17 -68 -18 -1267 -23
l-1253 -5 -66 -35 c-95 -50 -137 -91 -165 -160 -30 -76 -30 -93 3 -159 29 -57
32 -59 137 -90 67 -20 90 -21 820 -21 829 0 1041 -10 1119 -50 22 -12 56 -27
77 -34 81 -28 229 -174 246 -242 4 -16 17 -49 30 -74 53 -103 52 -498 -1 -651
-12 -36 -26 -90 -30 -120 -4 -30 -16 -76 -26 -104 -11 -27 -26 -77 -35 -110
-8 -33 -21 -69 -28 -80 -7 -11 -21 -45 -31 -75 -10 -30 -23 -62 -30 -70 -7 -8
-22 -33 -33 -55 -11 -22 -29 -49 -41 -59 -12 -11 -21 -24 -21 -30 0 -15 -84
-95 -135 -128 -60 -39 -208 -93 -310 -113 -49 -10 -124 -24 -165 -32 -63 -13
-308 -16 -1490 -20 -1648 -6 -1467 -20 -1450 117 6 47 20 111 31 144 11 32 24
95 30 140 6 44 19 108 30 141 10 33 24 96 30 140 6 44 17 87 25 95 13 13 174
16 1287 20 l1272 5 70 34 c39 19 89 55 113 79 23 24 42 45 42 46 0 1 5 28 10
59 14 75 1 124 -46 167 -21 18 -55 38 -78 43 -23 5 -398 13 -866 17 -551 5
-843 11 -880 19 -30 6 -86 16 -125 21 -38 6 -88 20 -110 32 -22 11 -61 27 -86
34 -25 8 -54 23 -64 34 -10 11 -23 20 -29 20 -10 0 -87 71 -135 125 -57 64
-97 170 -116 313 -7 56 17 274 41 372 8 30 21 87 29 125 40 179 86 339 112
390 11 22 23 54 27 70 4 17 18 47 32 67 13 21 24 41 24 45 0 15 81 127 118
163 20 20 52 45 70 55 17 11 32 23 32 26 0 4 24 16 53 27 28 11 66 27 82 36
17 9 46 18 65 22 19 3 82 17 140 31 152 38 250 40 1732 39 1190 -1 1309 -2
1323 -17z"/>
</g>
</svg>
